<svg width="12" height="15" viewBox="0 0 12 15" fill="none" xmlns="http://www.w3.org/2000/svg">
<path d="M3.84909 13.5C3.84909 13.8 3.58927 14.101 3.32858 14H2.19978C1.071 14 0.201172 13 0.201172 11.8V2.20001C0.201172 1.00001 1.06926 0 2.19978 0H8.28342C9.32617 0 10.2803 1.00001 10.2803 2.20001V5.5C10.2803 5.8 10.0214 6 9.75979 6C9.49823 6 9.32531 5.698 9.32531 5.5V2.20001C9.32531 1.60101 8.89082 1.10101 8.36857 1.10101H2.28493C1.76442 1.10101 1.32822 1.60101 1.32822 2.20001V11.801C1.32822 12.4 1.76269 12.9 2.28493 12.9H3.4146C3.58753 12.899 3.84909 13.101 3.84909 13.5Z" fill="black"/>
<path d="M6.97766 3.79996C6.97766 3.59996 6.80301 3.39697 6.63008 3.39697H3.15422C2.97869 3.39697 2.80664 3.59796 2.80664 3.79996C2.80664 4.00196 2.97956 4.19897 3.15422 4.19897H6.63008C6.80301 4.10097 6.97766 3.99996 6.97766 3.79996Z" fill="black"/>
<path d="M5.23965 6.00006C5.23965 5.80206 5.06499 5.60107 4.89206 5.60107H2.71965C2.54499 5.60107 2.37207 5.80106 2.37207 6.00006C2.37207 6.20106 2.54586 6.40106 2.71965 6.40106H4.89206C5.06499 6.39906 5.23965 6.20006 5.23965 6.00006Z" fill="black"/>
<path d="M2.63371 7.7998C2.45818 7.7998 2.28613 7.99982 2.28613 8.19882C2.28613 8.39982 2.45905 8.60181 2.63371 8.60181H4.02406C4.19699 8.60181 4.37164 8.39982 4.37164 8.19882C4.37164 7.99682 4.19612 7.7998 4.02406 7.7998H2.63371Z" fill="black"/>
<path d="M10.9757 13.7C10.8888 13.9 10.6281 14 10.4552 14H7.15222C6.80463 14 6.45703 13.601 6.45703 13.201C6.45703 13.1 6.45703 13.1 6.45703 13.002C6.63169 12.103 7.1522 11.401 7.76048 11.103C7.58756 10.802 7.4129 10.502 7.4129 10.104C7.4129 9.304 8.02205 8.604 8.80325 8.604C9.49842 8.604 10.1076 9.304 10.1076 10.104C10.1076 10.503 10.0207 10.804 9.75999 11.103C10.4552 11.504 10.8888 12.202 11.0634 13.002C11.1486 13.3 11.1486 13.5 10.9757 13.7Z" fill="black"/>
</svg>
