<svg width="13" height="14" viewBox="0 0 13 14" fill="none" xmlns="http://www.w3.org/2000/svg">
<path d="M10.5858 14H2.24289C1.20013 14 0.332031 13.002 0.332031 11.802V5.302C0.332031 4.603 0.679611 3.90101 1.20012 3.50201L2.32892 2.70099V0.700989C2.32892 0.200989 2.58874 0 2.84943 0H10.0601C10.3208 0 10.4946 0.2 10.4946 0.5V2.5L11.6242 3.39899C12.1447 3.80099 12.4923 4.49999 12.4923 5.20099V9.00201C12.4923 9.30201 12.3185 9.50201 12.0578 9.50201C11.7972 9.50201 11.6242 9.30201 11.6242 9.00201V6L7.45321 9.00201C6.84407 9.40101 6.06286 9.40101 5.45545 9.00201L1.28527 6V11.802C1.28527 12.401 1.71889 12.901 2.24114 12.901H10.5841C11.1046 12.901 11.5399 12.401 11.5399 11.802C11.5399 11.502 11.7137 11.302 11.9744 11.302C12.2334 11.302 12.408 11.502 12.408 11.802C12.4967 13 11.6268 14 10.5858 14ZM3.28651 1.10101V6.10101L5.89428 8C6.24187 8.198 6.58857 8.198 6.93702 8L9.5448 6.10101V1.10101H3.28651ZM10.4981 3.89899V5.5L11.4548 4.79901C11.3661 4.60101 11.2801 4.49801 11.1072 4.39801L10.4981 3.89899ZM2.32977 3.89899L1.72063 4.30099C1.54771 4.39999 1.46168 4.60199 1.37305 4.79999L2.32977 5.50201V3.89899Z" fill="black"/>
<path d="M4.76362 2.89893H6.67621C6.84913 2.89893 7.02379 3.09793 7.02379 3.29993C7.02379 3.49993 6.85087 3.69894 6.67621 3.69894H4.76362C4.58983 3.69894 4.41602 3.50093 4.41602 3.29993C4.41602 2.99993 4.58809 2.89893 4.76362 2.89893Z" fill="black"/>
<path d="M4.58792 4.2998H5.63069C5.80535 4.2998 5.97827 4.49782 5.97827 4.69882C5.97827 4.89882 5.80448 4.99881 5.63069 4.99881H4.58792C4.41325 4.99881 4.24121 4.89782 4.24121 4.69882C4.24121 4.49982 4.41586 4.2998 4.58792 4.2998Z" fill="black"/>
</svg>
