<svg width="13" height="15" viewBox="0 0 13 15" fill="none" xmlns="http://www.w3.org/2000/svg">
<path d="M0.438616 14.07C0.352588 14.07 0.177938 13.969 0.09191 13.87C0.00501342 13.769 0.00500811 13.57 0.00500811 13.371L0.786197 10.571C-0.864838 7.17204 0.177057 2.97002 3.04551 0.970024C5.91223 -1.02998 9.64966 0.172037 11.3876 3.57104C13.1255 6.97004 12.0828 11.172 9.12827 13.172C7.21742 14.371 4.95811 14.371 3.04551 13.172L0.612419 14.071C0.612419 14.07 0.525512 14.07 0.438616 14.07ZM3.13154 11.969C3.21844 11.969 3.30619 11.969 3.39222 12.07C5.82532 13.77 8.9536 12.969 10.4308 10.171C11.9081 7.37304 11.212 3.77003 8.77981 2.07003C6.34671 0.37003 3.21843 1.17102 1.74119 3.96902C0.69843 5.86802 0.69843 8.26902 1.74119 10.168C1.82809 10.269 1.82809 10.467 1.82809 10.668L1.30758 12.668L3.13154 11.969C3.04551 11.969 3.04551 11.969 3.13154 11.969Z" fill="black"/>
<path d="M6.52131 7.07025C6.52131 7.37225 6.34752 7.57025 6.08683 7.57025C5.82614 7.57025 5.65234 7.37225 5.65234 7.07025C5.65234 6.77025 5.82614 6.57227 6.08683 6.57227C6.34752 6.57227 6.52131 6.77025 6.52131 7.07025Z" fill="black"/>
<path d="M8.95308 7.07027C8.95308 7.37227 8.77926 7.57027 8.51944 7.57027C8.34478 7.57027 8.08496 7.37227 8.08496 7.07027C8.08496 6.77027 8.25875 6.57228 8.51944 6.57228C8.781 6.57028 8.95308 6.77027 8.95308 7.07027Z" fill="black"/>
<path d="M4.08882 7.07027C4.08882 7.37227 3.91503 7.57027 3.65434 7.57027C3.39452 7.57027 3.2207 7.37227 3.2207 7.07027C3.2207 6.77027 3.39452 6.57228 3.65434 6.57228C3.91503 6.57028 4.08882 6.77027 4.08882 7.07027Z" fill="black"/>
</svg>
