<svg width="15" height="14" viewBox="0 0 15 14" fill="none" xmlns="http://www.w3.org/2000/svg">
<path d="M11.4083 14H9.14695C8.96695 14 8.78514 13.8 8.69559 13.599V10.3C8.69559 9.89699 8.33376 9.599 7.97194 9.599H6.79695C6.43514 9.599 6.16285 9.89699 6.0733 10.3V13.599C6.0733 13.798 5.8933 14 5.62103 14H3.35876C2.54557 14 1.9115 13.397 1.82105 12.498V8.29999H1.64104C1.36968 8.29999 1.00696 8.19697 0.827865 7.89697C0.375593 7.49797 0.286037 6.69702 0.737405 6.19702L0.827865 6.09802L6.52557 0.395996C7.06921 -0.104004 7.79284 -0.104004 8.33466 0.395996L14.0333 6.09802C14.4847 6.49702 14.5751 7.297 14.1237 7.797L14.0333 7.896C13.7619 8.098 13.4915 8.29901 13.1297 8.29901H12.9496V12.497C12.8556 13.399 12.2215 14 11.4083 14ZM6.79604 8.79999H8.06331C8.8765 8.79999 9.51057 9.399 9.60102 10.302V13.201H11.4101C11.7719 13.201 12.0442 12.901 12.1329 12.5V7.89899C12.1329 7.69899 12.3138 7.5 12.5851 7.5H13.1269C13.2174 7.5 13.3983 7.49997 13.4888 7.39697C13.6688 7.19897 13.6688 6.99797 13.4888 6.79797L7.78923 1.099C7.60922 0.898999 7.33694 0.898999 7.15603 1.099L1.45741 6.79797C1.36696 6.89897 1.27649 6.998 1.27649 7.099C1.27649 7.2 1.36696 7.29797 1.45741 7.39697C1.54696 7.49997 1.63831 7.5 1.81832 7.5H2.45242C2.63514 7.5 2.81424 7.69799 2.90469 7.89899V12.5C2.90469 12.901 3.26649 13.201 3.6274 13.201H5.43649V10.302C5.34875 9.399 5.98105 8.69999 6.79604 8.79999Z" fill="#3A23CA"/>
</svg>
